<svg id="Capa_1" enable-background="new 0 0 512.022 512.022" height="512" viewBox="0 0 512.022 512.022" width="512" xmlns="http://www.w3.org/2000/svg"><g><path d="m508.811 71.201c-47.333-77.455-111.149-90.428-177.239-45.19-44.812-33.28-106.075-33.353-150.974-.108-65.424-44.697-129.682-32.766-177.387 45.298-3.808 6.232-2.574 14.301 2.922 19.11l64 56c6.558 5.736 16.634 4.704 21.879-2.29.112-.15 11.697-15.279 28.025-25.626 3.175-2.011 6.464-3.663 9.816-4.955-3.106 27.046 2.439 54.07 15.891 77.538l-80.798 61.089c-20.717 15.662-24.822 45.1-9.154 65.827 15.648 20.716 45.094 24.836 65.835 9.155l8.25-6.237-24.359 91.346c-2.539 9.516 4.646 18.865 14.493 18.865h25v34c0 25.916 21.084 47 47 47s47-21.084 47-47v-34h34v34c0 25.916 21.084 47 47 47s47-21.084 47-47v-34h25c9.849 0 17.031-9.35 14.493-18.865l-24.359-91.346 8.25 6.236c10.324 7.806 22.767 10.736 34.815 9.062 25.713-3.575 43.656-27.291 40.078-53.023-1.729-12.432-8.196-23.448-18.211-31.02l-80.799-61.09c13.43-23.431 19.001-50.447 15.891-77.536 3.352 1.292 6.641 2.942 9.813 4.951 16.406 10.396 27.933 25.502 28.028 25.628 5.249 7 15.328 8.022 21.879 2.29l64-56c5.496-4.808 6.73-12.877 2.922-19.109zm-252.8-40.179c38.39 0 71.641 22.418 87.353 54.85-38.443 11.563-56.771 6.507-64.571 2.04-6.19-3.546-7.583-7.646-7.79-8.39-.265-8.053-6.875-14.499-14.992-14.499s-14.728 6.446-14.992 14.499c-.207.745-1.6 4.844-7.79 8.39-7.801 4.469-26.128 9.524-64.571-2.04 15.712-32.432 48.963-54.85 87.353-54.85zm-96.063 83.549c31.039 9.289 71.341 14.791 96.063-6.121 24.796 20.974 65.045 15.394 96.062 6.113 8.181 58.675-37.598 110.459-96.062 110.459-58.528 0-104.227-51.849-96.063-110.451zm-21.767-33.918c-23.545 2.85-42.704 15.997-59.537 33.242l-42.968-37.597c33.039-47.525 72.715-60.442 122.539-29.21-8.302 10.013-15.093 21.32-20.034 33.565zm-34.645 222.464c-7.474 5.653-18.13 4.208-23.81-3.311-5.665-7.495-4.189-18.139 3.313-23.81l73.635-55.673-14.236 53.387zm105.475 161.905c0 9.374-7.626 17-17 17s-17-7.626-17-17v-34h34zm128 0c0 9.374-7.626 17-17 17s-17-7.626-17-17v-34h34zm-197.475-64 44.848-168.184c42.462 29.109 99.427 30.045 143.254 0l44.848 168.184zm289.449-125.025c7.494 5.665 8.982 16.306 3.308 23.814-5.657 7.489-16.307 8.974-23.807 3.305l-38.901-29.406-14.236-53.387zm4.393-162.102c-16.904-17.318-36.051-30.394-59.536-33.239-4.92-12.195-11.675-23.461-19.93-33.444 46.318-29.167 86.836-22.119 122.434 29.086z"/><path d="m224.011 191.022c8.284 0 15-6.716 15-15v-8c0-8.284-6.716-15-15-15s-15 6.716-15 15v8c0 8.284 6.716 15 15 15z"/><path d="m288.011 191.022c8.284 0 15-6.716 15-15v-8c0-8.284-6.716-15-15-15s-15 6.716-15 15v8c0 8.284 6.716 15 15 15z"/></g></svg>